<svg xmlns="http://www.w3.org/2000/svg" xmlns:xlink="http://www.w3.org/1999/xlink" version="1.1" class="marks" width="620" height="253" viewBox="0 0 620 253"><g fill="none" stroke-miterlimit="4" transform="translate(260,58)"><g class="mark-group role-frame root" role="graphics-object" aria-roledescription="group mark container"><g transform="translate(0,0)"><path class="background" aria-hidden="true" d="M0,0h121v152h-121Z"/><g><g class="mark-group role-axis" aria-hidden="true"><g transform="translate(0.5,152.5)"><path class="background" aria-hidden="true" d="M0,0h0v0h0Z" pointer-events="none"/><g><g class="mark-rule role-axis-grid" pointer-events="none"><line transform="translate(0,0)" x2="0" y2="-152" stroke="#d9d2c5" stroke-opacity="0.55" stroke-width="1" opacity="1"/><line transform="translate(30,0)" x2="0" y2="-152" stroke="#d9d2c5" stroke-opacity="0.55" stroke-width="1" opacity="1"/><line transform="translate(61,0)" x2="0" y2="-152" stroke="#d9d2c5" stroke-opacity="0.55" stroke-width="1" opacity="1"/><line transform="translate(91,0)" x2="0" y2="-152" stroke="#d9d2c5" stroke-opacity="0.55" stroke-width="1" opacity="1"/><line transform="translate(121,0)" x2="0" y2="-152" stroke="#d9d2c5" stroke-opacity="0.55" stroke-width="1" opacity="1"/></g></g><path class="foreground" aria-hidden="true" d="" pointer-events="none" display="none"/></g></g><g class="mark-group role-axis" role="graphics-symbol" aria-roledescription="axis" aria-label="X-axis titled 'accuracy (%)' for a linear scale with values from 0 to 80"><g transform="translate(0.5,152.5)"><path class="background" aria-hidden="true" d="M0,0h0v0h0Z" pointer-events="none"/><g><g class="mark-rule role-axis-tick" pointer-events="none"><line transform="translate(0,0)" x2="0" y2="5" stroke="#d9d2c5" stroke-width="1" opacity="1"/><line transform="translate(30,0)" x2="0" y2="5" stroke="#d9d2c5" stroke-width="1" opacity="1"/><line transform="translate(61,0)" x2="0" y2="5" stroke="#d9d2c5" stroke-width="1" opacity="1"/><line transform="translate(91,0)" x2="0" y2="5" stroke="#d9d2c5" stroke-width="1" opacity="1"/><line transform="translate(121,0)" x2="0" y2="5" stroke="#d9d2c5" stroke-width="1" opacity="1"/></g><g class="mark-text role-axis-label" pointer-events="none"><text text-anchor="start" transform="translate(0,16)" font-family="ui-sans-serif, system-ui, -apple-system, 'Segoe UI', Inter, Helvetica, Arial, sans-serif" font-size="12px" fill="#6b6459" opacity="1">0</text><text text-anchor="middle" transform="translate(30.25,16)" font-family="ui-sans-serif, system-ui, -apple-system, 'Segoe UI', Inter, Helvetica, Arial, sans-serif" font-size="12px" fill="#6b6459" opacity="1">20</text><text text-anchor="middle" transform="translate(60.5,16)" font-family="ui-sans-serif, system-ui, -apple-system, 'Segoe UI', Inter, Helvetica, Arial, sans-serif" font-size="12px" fill="#6b6459" opacity="1">40</text><text text-anchor="middle" transform="translate(90.75,16)" font-family="ui-sans-serif, system-ui, -apple-system, 'Segoe UI', Inter, Helvetica, Arial, sans-serif" font-size="12px" fill="#6b6459" opacity="1">60</text><text text-anchor="end" transform="translate(121,16)" font-family="ui-sans-serif, system-ui, -apple-system, 'Segoe UI', Inter, Helvetica, Arial, sans-serif" font-size="12px" fill="#6b6459" opacity="1">80</text></g><g class="mark-rule role-axis-domain" pointer-events="none"><line transform="translate(0,0)" x2="121" y2="0" stroke="#d9d2c5" stroke-width="1" opacity="1"/></g><g class="mark-text role-axis-title" pointer-events="none"><text text-anchor="middle" transform="translate(60.5,37)" font-family="ui-sans-serif, system-ui, -apple-system, 'Segoe UI', Inter, Helvetica, Arial, sans-serif" font-size="12px" font-weight="500" fill="#6b6459" opacity="1">accuracy (%)</text></g></g><path class="foreground" aria-hidden="true" d="" pointer-events="none" display="none"/></g></g><g class="mark-group role-axis" role="graphics-symbol" aria-roledescription="axis" aria-label="Y-axis for a discrete scale with 4 values: Answer at first position, Answer at last position, Answer in the middle, No documents at all"><g transform="translate(0.5,0.5)"><path class="background" aria-hidden="true" d="M0,0h0v0h0Z" pointer-events="none"/><g><g class="mark-rule role-axis-tick" pointer-events="none"><line transform="translate(0,19)" x2="-5" y2="0" stroke="#d9d2c5" stroke-width="1" opacity="1"/><line transform="translate(0,57)" x2="-5" y2="0" stroke="#d9d2c5" stroke-width="1" opacity="1"/><line transform="translate(0,95)" x2="-5" y2="0" stroke="#d9d2c5" stroke-width="1" opacity="1"/><line transform="translate(0,133)" x2="-5" y2="0" stroke="#d9d2c5" stroke-width="1" opacity="1"/></g><g class="mark-text role-axis-label" pointer-events="none"><text text-anchor="end" transform="translate(-7,22.500000000000007)" font-family="ui-sans-serif, system-ui, -apple-system, 'Segoe UI', Inter, Helvetica, Arial, sans-serif" font-size="13px" fill="#14110d" opacity="1">Answer at first position</text><text text-anchor="end" transform="translate(-7,60.50000000000001)" font-family="ui-sans-serif, system-ui, -apple-system, 'Segoe UI', Inter, Helvetica, Arial, sans-serif" font-size="13px" fill="#14110d" opacity="1">Answer at last position</text><text text-anchor="end" transform="translate(-7,98.5)" font-family="ui-sans-serif, system-ui, -apple-system, 'Segoe UI', Inter, Helvetica, Arial, sans-serif" font-size="13px" fill="#14110d" opacity="1">Answer in the middle</text><text text-anchor="end" transform="translate(-7,136.5)" font-family="ui-sans-serif, system-ui, -apple-system, 'Segoe UI', Inter, Helvetica, Arial, sans-serif" font-size="13px" fill="#14110d" opacity="1">No documents at all</text></g><g class="mark-rule role-axis-domain" pointer-events="none"><line transform="translate(0,0)" x2="0" y2="152" stroke="#d9d2c5" stroke-width="1" opacity="1"/></g></g><path class="foreground" aria-hidden="true" d="" pointer-events="none" display="none"/></g></g><g class="mark-group role-scope" role="graphics-object" aria-roledescription="group mark container"><g transform="translate(0,7.000000000000007)"><path class="background" aria-hidden="true" d="M0,0L111.64750000000001,0C113.303245073482,0,114.64750000000001,1.344254926518,114.64750000000001,3L114.64750000000001,21C114.64750000000001,22.655745073482,113.303245073482,24,111.64750000000001,24L0,24C0,24,0,24,0,24L0,0C0,0,0,0,0,0Z"/><g clip-path="url(#clip11)"><g class="mark-group role-scope" role="graphics-object" aria-roledescription="group mark container"><g transform="translate(0,0)"><path class="background" aria-hidden="true" d="M0,0h0v24h0Z"/><g><g class="mark-rect role-mark layer_0_marks" role="graphics-object" aria-roledescription="rect mark container"><path aria-label="accuracy (%): 75.8; case: Answer at first position; kind: 20 documents supplied" role="graphics-symbol" aria-roledescription="bar" d="M0,0h114.64750000000001v24h-114.64750000000001Z" fill="#2a78d6"/></g></g><path class="foreground" aria-hidden="true" d="" display="none"/></g></g></g><path class="foreground" aria-hidden="true" d="" display="none"/></g><g transform="translate(0,45.00000000000001)"><path class="background" aria-hidden="true" d="M0,0L92.59,0C94.245745073482,0,95.59,1.344254926518,95.59,3L95.59,21C95.59,22.655745073482,94.245745073482,24,92.59,24L0,24C0,24,0,24,0,24L0,0C0,0,0,0,0,0Z"/><g clip-path="url(#clip12)"><g class="mark-group role-scope" role="graphics-object" aria-roledescription="group mark container"><g transform="translate(0,0)"><path class="background" aria-hidden="true" d="M0,0h0v24h0Z"/><g><g class="mark-rect role-mark layer_0_marks" role="graphics-object" aria-roledescription="rect mark container"><path aria-label="accuracy (%): 63.2; case: Answer at last position; kind: 20 documents supplied" role="graphics-symbol" aria-roledescription="bar" d="M0,0h95.59v24h-95.59Z" fill="#2a78d6"/></g></g><path class="foreground" aria-hidden="true" d="" display="none"/></g></g></g><path class="foreground" aria-hidden="true" d="" display="none"/></g><g transform="translate(0,121)"><path class="background" aria-hidden="true" d="M0,0L81.85125000000001,0C83.506995073482,0,84.85125000000001,1.344254926518,84.85125000000001,3L84.85125000000001,21C84.85125000000001,22.655745073482,83.506995073482,24,81.85125000000001,24L0,24C0,24,0,24,0,24L0,0C0,0,0,0,0,0Z"/><g clip-path="url(#clip13)"><g class="mark-group role-scope" role="graphics-object" aria-roledescription="group mark container"><g transform="translate(0,0)"><path class="background" aria-hidden="true" d="M0,0h0v24h0Z"/><g><g class="mark-rect role-mark layer_0_marks" role="graphics-object" aria-roledescription="rect mark container"><path aria-label="accuracy (%): 56.1; case: No documents at all; kind: Closed-book control" role="graphics-symbol" aria-roledescription="bar" d="M0,0h84.85125000000001v24h-84.85125000000001Z" fill="#eb6834"/></g></g><path class="foreground" aria-hidden="true" d="" display="none"/></g></g></g><path class="foreground" aria-hidden="true" d="" display="none"/></g><g transform="translate(0,83)"><path class="background" aria-hidden="true" d="M0,0L78.3725,0C80.028245073482,0,81.3725,1.344254926518,81.3725,3L81.3725,21C81.3725,22.655745073482,80.028245073482,24,78.3725,24L0,24C0,24,0,24,0,24L0,0C0,0,0,0,0,0Z"/><g clip-path="url(#clip14)"><g class="mark-group role-scope" role="graphics-object" aria-roledescription="group mark container"><g transform="translate(0,0)"><path class="background" aria-hidden="true" d="M0,0h0v24h0Z"/><g><g class="mark-rect role-mark layer_0_marks" role="graphics-object" aria-roledescription="rect mark container"><path aria-label="accuracy (%): 53.8; case: Answer in the middle; kind: 20 documents supplied" role="graphics-symbol" aria-roledescription="bar" d="M0,0h81.3725v24h-81.3725Z" fill="#2a78d6"/></g></g><path class="foreground" aria-hidden="true" d="" display="none"/></g></g></g><path class="foreground" aria-hidden="true" d="" display="none"/></g></g><g class="mark-text role-mark layer_1_marks" role="graphics-object" aria-roledescription="text mark container"><text aria-label="accuracy (%): 75.8; case: Answer at first position; v: 75.8" role="graphics-symbol" aria-roledescription="text mark" text-anchor="start" transform="translate(122.64750000000001,23.000000000000007)" font-family="ui-sans-serif, system-ui, -apple-system, 'Segoe UI', Inter, Helvetica, Arial, sans-serif" font-size="13px" font-weight="600" fill="#14110d">75.8</text><text aria-label="accuracy (%): 63.2; case: Answer at last position; v: 63.2" role="graphics-symbol" aria-roledescription="text mark" text-anchor="start" transform="translate(103.59,61.00000000000001)" font-family="ui-sans-serif, system-ui, -apple-system, 'Segoe UI', Inter, Helvetica, Arial, sans-serif" font-size="13px" font-weight="600" fill="#14110d">63.2</text><text aria-label="accuracy (%): 56.1; case: No documents at all; v: 56.1" role="graphics-symbol" aria-roledescription="text mark" text-anchor="start" transform="translate(92.85125000000001,137)" font-family="ui-sans-serif, system-ui, -apple-system, 'Segoe UI', Inter, Helvetica, Arial, sans-serif" font-size="13px" font-weight="600" fill="#14110d">56.1</text><text aria-label="accuracy (%): 53.8; case: Answer in the middle; v: 53.8" role="graphics-symbol" aria-roledescription="text mark" text-anchor="start" transform="translate(89.3725,99)" font-family="ui-sans-serif, system-ui, -apple-system, 'Segoe UI', Inter, Helvetica, Arial, sans-serif" font-size="13px" font-weight="600" fill="#14110d">53.8</text></g><g class="mark-group role-legend" role="graphics-symbol" aria-roledescription="legend" aria-label="Symbol legend for fill color with 2 values: 20 documents supplied, Closed-book control"><g transform="translate(139,0)"><path class="background" aria-hidden="true" d="M0,0h217v26h-217Z" pointer-events="none"/><g><g class="mark-group role-legend-entry"><g transform="translate(0,0)"><path class="background" aria-hidden="true" d="M0,0h0v0h0Z" pointer-events="none"/><g><g class="mark-group role-scope" role="graphics-object" aria-roledescription="group mark container"><g transform="translate(0,0)"><path class="background" aria-hidden="true" d="M0,0h217v12h-217Z" pointer-events="none" opacity="1"/><g><g class="mark-symbol role-legend-symbol" pointer-events="none"><path transform="translate(6,6)" d="M-4.743,-4.743h9.487v9.487h-9.487Z" fill="#2a78d6" stroke-width="1.5" opacity="1"/></g><g class="mark-text role-legend-label" pointer-events="none"><text text-anchor="start" transform="translate(16,10)" font-family="ui-sans-serif, system-ui, -apple-system, 'Segoe UI', Inter, Helvetica, Arial, sans-serif" font-size="12px" fill="#14110d" opacity="1">20 documents supplied</text></g></g><path class="foreground" aria-hidden="true" d="" pointer-events="none" display="none"/></g><g transform="translate(0,14)"><path class="background" aria-hidden="true" d="M0,0h217v12h-217Z" pointer-events="none" opacity="1"/><g><g class="mark-symbol role-legend-symbol" pointer-events="none"><path transform="translate(6,6)" d="M-4.743,-4.743h9.487v9.487h-9.487Z" fill="#eb6834" stroke-width="1.5" opacity="1"/></g><g class="mark-text role-legend-label" pointer-events="none"><text text-anchor="start" transform="translate(16,10)" font-family="ui-sans-serif, system-ui, -apple-system, 'Segoe UI', Inter, Helvetica, Arial, sans-serif" font-size="12px" fill="#14110d" opacity="1">Closed-book control</text></g></g><path class="foreground" aria-hidden="true" d="" pointer-events="none" display="none"/></g></g></g><path class="foreground" aria-hidden="true" d="" pointer-events="none" display="none"/></g></g></g><path class="foreground" aria-hidden="true" d="" pointer-events="none" display="none"/></g></g><g class="mark-group role-title"><g transform="translate(-256,-54)"><path class="background" aria-hidden="true" d="M0,0h0v0h0Z" pointer-events="none"/><g><g class="mark-text role-title-text" role="graphics-symbol" aria-roledescription="title" aria-label="Title text 'GPT-3.5-Turbo accuracy by answer position, 20 documents'" pointer-events="none"><text text-anchor="start" transform="translate(0,11)" font-family="ui-sans-serif, system-ui, -apple-system, 'Segoe UI', Inter, Helvetica, Arial, sans-serif" font-size="14px" font-weight="600" fill="#14110d" opacity="1">GPT-3.5-Turbo accuracy by answer position, 20 documents</text></g><g class="mark-text role-title-subtitle" role="graphics-symbol" aria-roledescription="subtitle" aria-label="Subtitle text 'Lost in the Middle (arXiv:2307.03172, Liu et al., TACL). The orange bar is the closed-book control, with no documents supplied.'" pointer-events="none"><text text-anchor="start" transform="translate(0,26)" font-family="ui-sans-serif, system-ui, -apple-system, 'Segoe UI', Inter, Helvetica, Arial, sans-serif" font-size="12px" fill="#6b6459" opacity="1"><tspan>Lost in the Middle (arXiv:2307.03172, Liu et al., TACL). The orange bar is the</tspan><tspan x="0" dy="14">closed-book control, with no documents supplied.</tspan></text></g></g><path class="foreground" aria-hidden="true" d="" pointer-events="none" display="none"/></g></g></g><path class="foreground" aria-hidden="true" d="" display="none"/></g></g></g><defs><clipPath id="clip11"><path d="M0,0L111.64750000000001,0C113.303245073482,0,114.64750000000001,1.344254926518,114.64750000000001,3L114.64750000000001,21C114.64750000000001,22.655745073482,113.303245073482,24,111.64750000000001,24L0,24C0,24,0,24,0,24L0,0C0,0,0,0,0,0Z"/></clipPath><clipPath id="clip12"><path d="M0,0L92.59,0C94.245745073482,0,95.59,1.344254926518,95.59,3L95.59,21C95.59,22.655745073482,94.245745073482,24,92.59,24L0,24C0,24,0,24,0,24L0,0C0,0,0,0,0,0Z"/></clipPath><clipPath id="clip13"><path d="M0,0L81.85125000000001,0C83.506995073482,0,84.85125000000001,1.344254926518,84.85125000000001,3L84.85125000000001,21C84.85125000000001,22.655745073482,83.506995073482,24,81.85125000000001,24L0,24C0,24,0,24,0,24L0,0C0,0,0,0,0,0Z"/></clipPath><clipPath id="clip14"><path d="M0,0L78.3725,0C80.028245073482,0,81.3725,1.344254926518,81.3725,3L81.3725,21C81.3725,22.655745073482,80.028245073482,24,78.3725,24L0,24C0,24,0,24,0,24L0,0C0,0,0,0,0,0Z"/></clipPath></defs></svg>