<svg xmlns="http://www.w3.org/2000/svg" xmlns:xlink="http://www.w3.org/1999/xlink" version="1.1" class="marks" width="860" height="499" viewBox="0 0 860 499"><g fill="none" stroke-miterlimit="4" transform="translate(267,78)"><g class="mark-group role-frame root" role="graphics-object" aria-roledescription="group mark container"><g transform="translate(0,0)"><path class="background" aria-hidden="true" d="M0,0h502v336h-502Z"/><g><g class="mark-group role-axis" aria-hidden="true"><g transform="translate(0.5,336.5)"><path class="background" aria-hidden="true" d="M0,0h0v0h0Z" pointer-events="none"/><g><g class="mark-rule role-axis-grid" pointer-events="none"><line transform="translate(0,0)" x2="0" y2="-336" stroke="#d9d2c5" stroke-opacity="0.55" stroke-width="1" opacity="1"/><line transform="translate(50,0)" x2="0" y2="-336" stroke="#d9d2c5" stroke-opacity="0.55" stroke-width="1" opacity="1"/><line transform="translate(100,0)" x2="0" y2="-336" stroke="#d9d2c5" stroke-opacity="0.55" stroke-width="1" opacity="1"/><line transform="translate(151,0)" x2="0" y2="-336" stroke="#d9d2c5" stroke-opacity="0.55" stroke-width="1" opacity="1"/><line transform="translate(201,0)" x2="0" y2="-336" stroke="#d9d2c5" stroke-opacity="0.55" stroke-width="1" opacity="1"/><line transform="translate(251,0)" x2="0" y2="-336" stroke="#d9d2c5" stroke-opacity="0.55" stroke-width="1" opacity="1"/><line transform="translate(301,0)" x2="0" y2="-336" stroke="#d9d2c5" stroke-opacity="0.55" stroke-width="1" opacity="1"/><line transform="translate(351,0)" x2="0" y2="-336" stroke="#d9d2c5" stroke-opacity="0.55" stroke-width="1" opacity="1"/><line transform="translate(402,0)" x2="0" y2="-336" stroke="#d9d2c5" stroke-opacity="0.55" stroke-width="1" opacity="1"/><line transform="translate(452,0)" x2="0" y2="-336" stroke="#d9d2c5" stroke-opacity="0.55" stroke-width="1" opacity="1"/><line transform="translate(502,0)" x2="0" y2="-336" stroke="#d9d2c5" stroke-opacity="0.55" stroke-width="1" opacity="1"/></g></g><path class="foreground" aria-hidden="true" d="" pointer-events="none" display="none"/></g></g><g class="mark-group role-axis" role="graphics-symbol" aria-roledescription="axis" aria-label="X-axis titled 'multiple of base input rate' for a linear scale with values from 0.0 to 2.0"><g transform="translate(0.5,336.5)"><path class="background" aria-hidden="true" d="M0,0h0v0h0Z" pointer-events="none"/><g><g class="mark-rule role-axis-tick" pointer-events="none"><line transform="translate(0,0)" x2="0" y2="5" stroke="#d9d2c5" stroke-width="1" opacity="1"/><line transform="translate(50,0)" x2="0" y2="5" stroke="#d9d2c5" stroke-width="1" opacity="1"/><line transform="translate(100,0)" x2="0" y2="5" stroke="#d9d2c5" stroke-width="1" opacity="1"/><line transform="translate(151,0)" x2="0" y2="5" stroke="#d9d2c5" stroke-width="1" opacity="1"/><line transform="translate(201,0)" x2="0" y2="5" stroke="#d9d2c5" stroke-width="1" opacity="1"/><line transform="translate(251,0)" x2="0" y2="5" stroke="#d9d2c5" stroke-width="1" opacity="1"/><line transform="translate(301,0)" x2="0" y2="5" stroke="#d9d2c5" stroke-width="1" opacity="1"/><line transform="translate(351,0)" x2="0" y2="5" stroke="#d9d2c5" stroke-width="1" opacity="1"/><line transform="translate(402,0)" x2="0" y2="5" stroke="#d9d2c5" stroke-width="1" opacity="1"/><line transform="translate(452,0)" x2="0" y2="5" stroke="#d9d2c5" stroke-width="1" opacity="1"/><line transform="translate(502,0)" x2="0" y2="5" stroke="#d9d2c5" stroke-width="1" opacity="1"/></g><g class="mark-text role-axis-label" pointer-events="none"><text text-anchor="start" transform="translate(0,18)" font-family="ui-sans-serif, system-ui, -apple-system, 'Segoe UI', Inter, Helvetica, Arial, sans-serif" font-size="14px" fill="#6b6459" opacity="1">0.0</text><text text-anchor="middle" transform="translate(50.2,18)" font-family="ui-sans-serif, system-ui, -apple-system, 'Segoe UI', Inter, Helvetica, Arial, sans-serif" font-size="14px" fill="#6b6459" opacity="1">0.2</text><text text-anchor="middle" transform="translate(100.4,18)" font-family="ui-sans-serif, system-ui, -apple-system, 'Segoe UI', Inter, Helvetica, Arial, sans-serif" font-size="14px" fill="#6b6459" opacity="1">0.4</text><text text-anchor="middle" transform="translate(150.6,18)" font-family="ui-sans-serif, system-ui, -apple-system, 'Segoe UI', Inter, Helvetica, Arial, sans-serif" font-size="14px" fill="#6b6459" opacity="1">0.6</text><text text-anchor="middle" transform="translate(200.8,18)" font-family="ui-sans-serif, system-ui, -apple-system, 'Segoe UI', Inter, Helvetica, Arial, sans-serif" font-size="14px" fill="#6b6459" opacity="1">0.8</text><text text-anchor="middle" transform="translate(251,18)" font-family="ui-sans-serif, system-ui, -apple-system, 'Segoe UI', Inter, Helvetica, Arial, sans-serif" font-size="14px" fill="#6b6459" opacity="1">1.0</text><text text-anchor="middle" transform="translate(301.2,18)" font-family="ui-sans-serif, system-ui, -apple-system, 'Segoe UI', Inter, Helvetica, Arial, sans-serif" font-size="14px" fill="#6b6459" opacity="1">1.2</text><text text-anchor="middle" transform="translate(351.4,18)" font-family="ui-sans-serif, system-ui, -apple-system, 'Segoe UI', Inter, Helvetica, Arial, sans-serif" font-size="14px" fill="#6b6459" opacity="1">1.4</text><text text-anchor="middle" transform="translate(401.6,18)" font-family="ui-sans-serif, system-ui, -apple-system, 'Segoe UI', Inter, Helvetica, Arial, sans-serif" font-size="14px" fill="#6b6459" opacity="1">1.6</text><text text-anchor="middle" transform="translate(451.8,18)" font-family="ui-sans-serif, system-ui, -apple-system, 'Segoe UI', Inter, Helvetica, Arial, sans-serif" font-size="14px" fill="#6b6459" opacity="1">1.8</text><text text-anchor="end" transform="translate(502,18)" font-family="ui-sans-serif, system-ui, -apple-system, 'Segoe UI', Inter, Helvetica, Arial, sans-serif" font-size="14px" fill="#6b6459" opacity="1">2.0</text></g><g class="mark-rule role-axis-domain" pointer-events="none"><line transform="translate(0,0)" x2="502" y2="0" stroke="#d9d2c5" stroke-width="1" opacity="1"/></g><g class="mark-text role-axis-title" pointer-events="none"><text text-anchor="middle" transform="translate(251,48)" font-family="ui-sans-serif, system-ui, -apple-system, 'Segoe UI', Inter, Helvetica, Arial, sans-serif" font-size="14px" font-weight="500" fill="#6b6459" opacity="1">multiple of base input rate</text></g></g><path class="foreground" aria-hidden="true" d="" pointer-events="none" display="none"/></g></g><g class="mark-group role-axis" role="graphics-symbol" aria-roledescription="axis" aria-label="Y-axis for a discrete scale with 3 values: Cache write, 1h TTL, Cache write, short TTL, Cache read"><g transform="translate(0.5,0.5)"><path class="background" aria-hidden="true" d="M0,0h0v0h0Z" pointer-events="none"/><g><g class="mark-rule role-axis-tick" pointer-events="none"><line transform="translate(0,63)" x2="-5" y2="0" stroke="#d9d2c5" stroke-width="1" opacity="1"/><line transform="translate(0,168)" x2="-5" y2="0" stroke="#d9d2c5" stroke-width="1" opacity="1"/><line transform="translate(0,273)" x2="-5" y2="0" stroke="#d9d2c5" stroke-width="1" opacity="1"/></g><g class="mark-text role-axis-label" pointer-events="none"><text text-anchor="end" transform="translate(-15,66.5)" font-family="ui-sans-serif, system-ui, -apple-system, 'Segoe UI', Inter, Helvetica, Arial, sans-serif" font-size="14px" fill="#14110d" opacity="1">Cache write, 1h TTL</text><text text-anchor="end" transform="translate(-15,171.50000000000003)" font-family="ui-sans-serif, system-ui, -apple-system, 'Segoe UI', Inter, Helvetica, Arial, sans-serif" font-size="14px" fill="#14110d" opacity="1">Cache write, short TTL</text><text text-anchor="end" transform="translate(-15,276.50000000000006)" font-family="ui-sans-serif, system-ui, -apple-system, 'Segoe UI', Inter, Helvetica, Arial, sans-serif" font-size="14px" fill="#14110d" opacity="1">Cache read</text></g><g class="mark-rule role-axis-domain" pointer-events="none"><line transform="translate(0,0)" x2="0" y2="336" stroke="#d9d2c5" stroke-width="1" opacity="1"/></g></g><path class="foreground" aria-hidden="true" d="" pointer-events="none" display="none"/></g></g><g class="mark-rule role-mark layer_0_marks" role="graphics-object" aria-roledescription="rule mark container"><line aria-label="multiple of base input rate: 1" role="graphics-symbol" aria-roledescription="rule mark" transform="translate(251,0)" x2="0" y2="336" stroke="black" stroke-dasharray="4,4" opacity="0.75"/></g><g class="mark-group role-scope" role="graphics-object" aria-roledescription="group mark container"><g transform="translate(0,24)"><path class="background" aria-hidden="true" d="M0,0L499,0C500.655745073482,0,502,1.344254926518,502,3L502,19C502,20.655745073482,500.655745073482,22,499,22L0,22C0,22,0,22,0,22L0,0C0,0,0,0,0,0Z"/><g clip-path="url(#clip69)"><g class="mark-group role-scope" role="graphics-object" aria-roledescription="group mark container"><g transform="translate(0,0)"><path class="background" aria-hidden="true" d="M0,0h0v22h0Z"/><g><g class="mark-rect role-mark layer_1_marks" role="graphics-object" aria-roledescription="rect mark container"><path aria-label="multiple of base input rate: 2; tier: Cache write, 1h TTL; provider: Anthropic" role="graphics-symbol" aria-roledescription="bar" d="M0,0h502v22h-502Z" fill="#2a78d6"/></g></g><path class="foreground" aria-hidden="true" d="" display="none"/></g></g></g><path class="foreground" aria-hidden="true" d="" display="none"/></g><g transform="translate(0,129)"><path class="background" aria-hidden="true" d="M0,0L310.75,0C312.405745073482,0,313.75,1.344254926518,313.75,3L313.75,19C313.75,20.655745073482,312.405745073482,22,310.75,22L0,22C0,22,0,22,0,22L0,0C0,0,0,0,0,0Z"/><g clip-path="url(#clip70)"><g class="mark-group role-scope" role="graphics-object" aria-roledescription="group mark container"><g transform="translate(0,0)"><path class="background" aria-hidden="true" d="M0,0h0v22h0Z"/><g><g class="mark-rect role-mark layer_1_marks" role="graphics-object" aria-roledescription="rect mark container"><path aria-label="multiple of base input rate: 1.25; tier: Cache write, short TTL; provider: Anthropic" role="graphics-symbol" aria-roledescription="bar" d="M0,0h313.75v22h-313.75Z" fill="#2a78d6"/></g></g><path class="foreground" aria-hidden="true" d="" display="none"/></g></g></g><path class="foreground" aria-hidden="true" d="" display="none"/></g><g transform="translate(0,185)"><path class="background" aria-hidden="true" d="M0,0L310.75,0C312.405745073482,0,313.75,1.344254926518,313.75,3L313.75,19C313.75,20.655745073482,312.405745073482,22,310.75,22L0,22C0,22,0,22,0,22L0,0C0,0,0,0,0,0Z"/><g clip-path="url(#clip71)"><g class="mark-group role-scope" role="graphics-object" aria-roledescription="group mark container"><g transform="translate(0,0)"><path class="background" aria-hidden="true" d="M0,0h0v22h0Z"/><g><g class="mark-rect role-mark layer_1_marks" role="graphics-object" aria-roledescription="rect mark container"><path aria-label="multiple of base input rate: 1.25; tier: Cache write, short TTL; provider: OpenAI" role="graphics-symbol" aria-roledescription="bar" d="M0,0h313.75v22h-313.75Z" fill="#1baf7a"/></g></g><path class="foreground" aria-hidden="true" d="" display="none"/></g></g></g><path class="foreground" aria-hidden="true" d="" display="none"/></g><g transform="translate(0,234.00000000000003)"><path class="background" aria-hidden="true" d="M0,0L22.1,0C23.755745073482,0,25.1,1.344254926518,25.1,3L25.1,19C25.1,20.655745073482,23.755745073482,22,22.1,22L0,22C0,22,0,22,0,22L0,0C0,0,0,0,0,0Z"/><g clip-path="url(#clip72)"><g class="mark-group role-scope" role="graphics-object" aria-roledescription="group mark container"><g transform="translate(0,0)"><path class="background" aria-hidden="true" d="M0,0h0v22h0Z"/><g><g class="mark-rect role-mark layer_1_marks" role="graphics-object" aria-roledescription="rect mark container"><path aria-label="multiple of base input rate: 0.1; tier: Cache read; provider: Anthropic" role="graphics-symbol" aria-roledescription="bar" d="M0,0h25.1v22h-25.1Z" fill="#2a78d6"/></g></g><path class="foreground" aria-hidden="true" d="" display="none"/></g></g></g><path class="foreground" aria-hidden="true" d="" display="none"/></g><g transform="translate(0,290)"><path class="background" aria-hidden="true" d="M0,0L22.1,0C23.755745073482,0,25.1,1.344254926518,25.1,3L25.1,19C25.1,20.655745073482,23.755745073482,22,22.1,22L0,22C0,22,0,22,0,22L0,0C0,0,0,0,0,0Z"/><g clip-path="url(#clip73)"><g class="mark-group role-scope" role="graphics-object" aria-roledescription="group mark container"><g transform="translate(0,0)"><path class="background" aria-hidden="true" d="M0,0h0v22h0Z"/><g><g class="mark-rect role-mark layer_1_marks" role="graphics-object" aria-roledescription="rect mark container"><path aria-label="multiple of base input rate: 0.1; tier: Cache read; provider: OpenAI" role="graphics-symbol" aria-roledescription="bar" d="M0,0h25.1v22h-25.1Z" fill="#1baf7a"/></g></g><path class="foreground" aria-hidden="true" d="" display="none"/></g></g></g><path class="foreground" aria-hidden="true" d="" display="none"/></g><g transform="translate(0,262)"><path class="background" aria-hidden="true" d="M0,0L22.1,0C23.755745073482,0,25.1,1.344254926518,25.1,3L25.1,19C25.1,20.655745073482,23.755745073482,22,22.1,22L0,22C0,22,0,22,0,22L0,0C0,0,0,0,0,0Z"/><g clip-path="url(#clip74)"><g class="mark-group role-scope" role="graphics-object" aria-roledescription="group mark container"><g transform="translate(0,0)"><path class="background" aria-hidden="true" d="M0,0h0v22h0Z"/><g><g class="mark-rect role-mark layer_1_marks" role="graphics-object" aria-roledescription="rect mark container"><path aria-label="multiple of base input rate: 0.1; tier: Cache read; provider: Google" role="graphics-symbol" aria-roledescription="bar" d="M0,0h25.1v22h-25.1Z" fill="#eb6834"/></g></g><path class="foreground" aria-hidden="true" d="" display="none"/></g></g></g><path class="foreground" aria-hidden="true" d="" display="none"/></g></g><g class="mark-text role-mark layer_2_marks" role="graphics-object" aria-roledescription="text mark container"><text aria-label="multiple of base input rate: 2; tier: Cache write, 1h TTL; provider: Anthropic; d: 2.0x" role="graphics-symbol" aria-roledescription="text mark" text-anchor="start" transform="translate(510,39)" font-family="ui-sans-serif, system-ui, -apple-system, 'Segoe UI', Inter, Helvetica, Arial, sans-serif" font-size="13px" font-weight="600" fill="#14110d">2.0x</text><text aria-label="multiple of base input rate: 1.25; tier: Cache write, short TTL; provider: Anthropic; d: 1.25x" role="graphics-symbol" aria-roledescription="text mark" text-anchor="start" transform="translate(321.75,144)" font-family="ui-sans-serif, system-ui, -apple-system, 'Segoe UI', Inter, Helvetica, Arial, sans-serif" font-size="13px" font-weight="600" fill="#14110d">1.25x</text><text aria-label="multiple of base input rate: 1.25; tier: Cache write, short TTL; provider: OpenAI; d: 1.25x" role="graphics-symbol" aria-roledescription="text mark" text-anchor="start" transform="translate(321.75,200)" font-family="ui-sans-serif, system-ui, -apple-system, 'Segoe UI', Inter, Helvetica, Arial, sans-serif" font-size="13px" font-weight="600" fill="#14110d">1.25x</text><text aria-label="multiple of base input rate: 0.1; tier: Cache read; provider: Anthropic; d: 0.1x" role="graphics-symbol" aria-roledescription="text mark" text-anchor="start" transform="translate(33.1,249.00000000000003)" font-family="ui-sans-serif, system-ui, -apple-system, 'Segoe UI', Inter, Helvetica, Arial, sans-serif" font-size="13px" font-weight="600" fill="#14110d">0.1x</text><text aria-label="multiple of base input rate: 0.1; tier: Cache read; provider: OpenAI; d: 0.1x" role="graphics-symbol" aria-roledescription="text mark" text-anchor="start" transform="translate(33.1,305)" font-family="ui-sans-serif, system-ui, -apple-system, 'Segoe UI', Inter, Helvetica, Arial, sans-serif" font-size="13px" font-weight="600" fill="#14110d">0.1x</text><text aria-label="multiple of base input rate: 0.1; tier: Cache read; provider: Google; d: 0.1x" role="graphics-symbol" aria-roledescription="text mark" text-anchor="start" transform="translate(33.1,277)" font-family="ui-sans-serif, system-ui, -apple-system, 'Segoe UI', Inter, Helvetica, Arial, sans-serif" font-size="13px" font-weight="600" fill="#14110d">0.1x</text></g><g class="mark-group role-legend" role="graphics-symbol" aria-roledescription="legend" aria-label="Symbol legend for fill color with 3 values: Anthropic, Google, OpenAI"><g transform="translate(0,401)"><path class="background" aria-hidden="true" d="M0,0h305v14h-305Z" pointer-events="none"/><g><g class="mark-group role-legend-entry"><g transform="translate(0,0)"><path class="background" aria-hidden="true" d="M0,0h0v0h0Z" pointer-events="none"/><g><g class="mark-group role-scope" role="graphics-object" aria-roledescription="group mark container"><g transform="translate(0,0.375)"><path class="background" aria-hidden="true" d="M0,0h116.5v13.25h-116.5Z" pointer-events="none" opacity="1"/><g><g class="mark-symbol role-legend-symbol" pointer-events="none"><path transform="translate(6.75,6.75)" d="M-5,-5h10v10h-10Z" fill="#2a78d6" stroke-width="0" opacity="1"/></g><g class="mark-text role-legend-label" pointer-events="none"><text text-anchor="start" transform="translate(19.5,10.75)" font-family="ui-sans-serif, system-ui, -apple-system, 'Segoe UI', Inter, Helvetica, Arial, sans-serif" font-size="13.5px" fill="#14110d" opacity="1">Anthropic</text></g></g><path class="foreground" aria-hidden="true" d="" pointer-events="none" display="none"/></g><g transform="translate(127,0.375)"><path class="background" aria-hidden="true" d="M0,0h83.5v13.25h-83.5Z" pointer-events="none" opacity="1"/><g><g class="mark-symbol role-legend-symbol" pointer-events="none"><path transform="translate(6.75,6.75)" d="M-5,-5h10v10h-10Z" fill="#eb6834" stroke-width="0" opacity="1"/></g><g class="mark-text role-legend-label" pointer-events="none"><text text-anchor="start" transform="translate(19.5,10.75)" font-family="ui-sans-serif, system-ui, -apple-system, 'Segoe UI', Inter, Helvetica, Arial, sans-serif" font-size="13.5px" fill="#14110d" opacity="1">Google</text></g></g><path class="foreground" aria-hidden="true" d="" pointer-events="none" display="none"/></g><g transform="translate(221,0.375)"><path class="background" aria-hidden="true" d="M0,0h83.5v13.25h-83.5Z" pointer-events="none" opacity="1"/><g><g class="mark-symbol role-legend-symbol" pointer-events="none"><path transform="translate(6.75,6.75)" d="M-5,-5h10v10h-10Z" fill="#1baf7a" stroke-width="0" opacity="1"/></g><g class="mark-text role-legend-label" pointer-events="none"><text text-anchor="start" transform="translate(19.5,10.75)" font-family="ui-sans-serif, system-ui, -apple-system, 'Segoe UI', Inter, Helvetica, Arial, sans-serif" font-size="13.5px" fill="#14110d" opacity="1">OpenAI</text></g></g><path class="foreground" aria-hidden="true" d="" pointer-events="none" display="none"/></g></g></g><path class="foreground" aria-hidden="true" d="" pointer-events="none" display="none"/></g></g></g><path class="foreground" aria-hidden="true" d="" pointer-events="none" display="none"/></g></g><g class="mark-group role-title"><g transform="translate(-261,-70.5)"><path class="background" aria-hidden="true" d="M0,0h0v0h0Z" pointer-events="none"/><g><g class="mark-text role-title-text" role="graphics-symbol" aria-roledescription="title" aria-label="Title text 'What a cached input token costs, as a multiple of the base rate'" pointer-events="none"><text text-anchor="start" transform="translate(0,13)" font-family="ui-sans-serif, system-ui, -apple-system, 'Segoe UI', Inter, Helvetica, Arial, sans-serif" font-size="17px" font-weight="600" fill="#14110d" opacity="1">What a cached input token costs, as a multiple of the base rate</text></g><g class="mark-text role-title-subtitle" role="graphics-symbol" aria-roledescription="subtitle" aria-label="Subtitle text 'Dashed line is uncached input at 1.0x. Google has no write bar: it charges no write premium and bills hourly storage instead. OpenAI models before GPT-5.6 also had no write charge.'" pointer-events="none"><text text-anchor="start" transform="translate(0,30)" font-family="ui-sans-serif, system-ui, -apple-system, 'Segoe UI', Inter, Helvetica, Arial, sans-serif" font-size="13px" fill="#6b6459" opacity="1"><tspan>Dashed line is uncached input at 1.0x. Google has no write bar: it charges no write premium and bills hourly storage</tspan><tspan x="0" dy="18">instead. OpenAI models before GPT-5.6 also had no write charge.</tspan></text></g></g><path class="foreground" aria-hidden="true" d="" pointer-events="none" display="none"/></g></g></g><path class="foreground" aria-hidden="true" d="" display="none"/></g></g></g><defs><clipPath id="clip69"><path d="M0,0L499,0C500.655745073482,0,502,1.344254926518,502,3L502,19C502,20.655745073482,500.655745073482,22,499,22L0,22C0,22,0,22,0,22L0,0C0,0,0,0,0,0Z"/></clipPath><clipPath id="clip70"><path d="M0,0L310.75,0C312.405745073482,0,313.75,1.344254926518,313.75,3L313.75,19C313.75,20.655745073482,312.405745073482,22,310.75,22L0,22C0,22,0,22,0,22L0,0C0,0,0,0,0,0Z"/></clipPath><clipPath id="clip71"><path d="M0,0L310.75,0C312.405745073482,0,313.75,1.344254926518,313.75,3L313.75,19C313.75,20.655745073482,312.405745073482,22,310.75,22L0,22C0,22,0,22,0,22L0,0C0,0,0,0,0,0Z"/></clipPath><clipPath id="clip72"><path d="M0,0L22.1,0C23.755745073482,0,25.1,1.344254926518,25.1,3L25.1,19C25.1,20.655745073482,23.755745073482,22,22.1,22L0,22C0,22,0,22,0,22L0,0C0,0,0,0,0,0Z"/></clipPath><clipPath id="clip73"><path d="M0,0L22.1,0C23.755745073482,0,25.1,1.344254926518,25.1,3L25.1,19C25.1,20.655745073482,23.755745073482,22,22.1,22L0,22C0,22,0,22,0,22L0,0C0,0,0,0,0,0Z"/></clipPath><clipPath id="clip74"><path d="M0,0L22.1,0C23.755745073482,0,25.1,1.344254926518,25.1,3L25.1,19C25.1,20.655745073482,23.755745073482,22,22.1,22L0,22C0,22,0,22,0,22L0,0C0,0,0,0,0,0Z"/></clipPath></defs></svg>