<svg xmlns="http://www.w3.org/2000/svg" xmlns:xlink="http://www.w3.org/1999/xlink" version="1.1" class="marks" width="860" height="287" viewBox="0 0 860 287"><g fill="none" stroke-miterlimit="4" transform="translate(312,50)"><g class="mark-group role-frame root" role="graphics-object" aria-roledescription="group mark container"><g transform="translate(0,0)"><path class="background" aria-hidden="true" d="M0,0h543v190h-543Z"/><g><g class="mark-group role-axis" aria-hidden="true"><g transform="translate(0.5,190.5)"><path class="background" aria-hidden="true" d="M0,0h0v0h0Z" pointer-events="none"/><g><g class="mark-rule role-axis-grid" pointer-events="none"><line transform="translate(0,0)" x2="0" y2="-190" stroke="#d9d2c5" stroke-opacity="0.55" stroke-width="1" opacity="1"/><line transform="translate(54,0)" x2="0" y2="-190" stroke="#d9d2c5" stroke-opacity="0.55" stroke-width="1" opacity="1"/><line transform="translate(109,0)" x2="0" y2="-190" stroke="#d9d2c5" stroke-opacity="0.55" stroke-width="1" opacity="1"/><line transform="translate(163,0)" x2="0" y2="-190" stroke="#d9d2c5" stroke-opacity="0.55" stroke-width="1" opacity="1"/><line transform="translate(217,0)" x2="0" y2="-190" stroke="#d9d2c5" stroke-opacity="0.55" stroke-width="1" opacity="1"/><line transform="translate(272,0)" x2="0" y2="-190" stroke="#d9d2c5" stroke-opacity="0.55" stroke-width="1" opacity="1"/><line transform="translate(326,0)" x2="0" y2="-190" stroke="#d9d2c5" stroke-opacity="0.55" stroke-width="1" opacity="1"/><line transform="translate(380,0)" x2="0" y2="-190" stroke="#d9d2c5" stroke-opacity="0.55" stroke-width="1" opacity="1"/><line transform="translate(434,0)" x2="0" y2="-190" stroke="#d9d2c5" stroke-opacity="0.55" stroke-width="1" opacity="1"/><line transform="translate(489,0)" x2="0" y2="-190" stroke="#d9d2c5" stroke-opacity="0.55" stroke-width="1" opacity="1"/><line transform="translate(543,0)" x2="0" y2="-190" stroke="#d9d2c5" stroke-opacity="0.55" stroke-width="1" opacity="1"/></g></g><path class="foreground" aria-hidden="true" d="" pointer-events="none" display="none"/></g></g><g class="mark-group role-axis" role="graphics-symbol" aria-roledescription="axis" aria-label="X-axis titled 'score at 32K context' for a linear scale with values from 0 to 100"><g transform="translate(0.5,190.5)"><path class="background" aria-hidden="true" d="M0,0h0v0h0Z" pointer-events="none"/><g><g class="mark-rule role-axis-tick" pointer-events="none"><line transform="translate(0,0)" x2="0" y2="5" stroke="#d9d2c5" stroke-width="1" opacity="1"/><line transform="translate(54,0)" x2="0" y2="5" stroke="#d9d2c5" stroke-width="1" opacity="1"/><line transform="translate(109,0)" x2="0" y2="5" stroke="#d9d2c5" stroke-width="1" opacity="1"/><line transform="translate(163,0)" x2="0" y2="5" stroke="#d9d2c5" stroke-width="1" opacity="1"/><line transform="translate(217,0)" x2="0" y2="5" stroke="#d9d2c5" stroke-width="1" opacity="1"/><line transform="translate(272,0)" x2="0" y2="5" stroke="#d9d2c5" stroke-width="1" opacity="1"/><line transform="translate(326,0)" x2="0" y2="5" stroke="#d9d2c5" stroke-width="1" opacity="1"/><line transform="translate(380,0)" x2="0" y2="5" stroke="#d9d2c5" stroke-width="1" opacity="1"/><line transform="translate(434,0)" x2="0" y2="5" stroke="#d9d2c5" stroke-width="1" opacity="1"/><line transform="translate(489,0)" x2="0" y2="5" stroke="#d9d2c5" stroke-width="1" opacity="1"/><line transform="translate(543,0)" x2="0" y2="5" stroke="#d9d2c5" stroke-width="1" opacity="1"/></g><g class="mark-text role-axis-label" pointer-events="none"><text text-anchor="start" transform="translate(0,17)" font-family="ui-sans-serif, system-ui, -apple-system, 'Segoe UI', Inter, Helvetica, Arial, sans-serif" font-size="13px" fill="#6b6459" opacity="1">0</text><text text-anchor="middle" transform="translate(54.300000000000004,17)" font-family="ui-sans-serif, system-ui, -apple-system, 'Segoe UI', Inter, Helvetica, Arial, sans-serif" font-size="13px" fill="#6b6459" opacity="1">10</text><text text-anchor="middle" transform="translate(108.60000000000001,17)" font-family="ui-sans-serif, system-ui, -apple-system, 'Segoe UI', Inter, Helvetica, Arial, sans-serif" font-size="13px" fill="#6b6459" opacity="1">20</text><text text-anchor="middle" transform="translate(162.9,17)" font-family="ui-sans-serif, system-ui, -apple-system, 'Segoe UI', Inter, Helvetica, Arial, sans-serif" font-size="13px" fill="#6b6459" opacity="1">30</text><text text-anchor="middle" transform="translate(217.20000000000002,17)" font-family="ui-sans-serif, system-ui, -apple-system, 'Segoe UI', Inter, Helvetica, Arial, sans-serif" font-size="13px" fill="#6b6459" opacity="1">40</text><text text-anchor="middle" transform="translate(271.5,17)" font-family="ui-sans-serif, system-ui, -apple-system, 'Segoe UI', Inter, Helvetica, Arial, sans-serif" font-size="13px" fill="#6b6459" opacity="1">50</text><text text-anchor="middle" transform="translate(325.8,17)" font-family="ui-sans-serif, system-ui, -apple-system, 'Segoe UI', Inter, Helvetica, Arial, sans-serif" font-size="13px" fill="#6b6459" opacity="1">60</text><text text-anchor="middle" transform="translate(380.09999999999997,17)" font-family="ui-sans-serif, system-ui, -apple-system, 'Segoe UI', Inter, Helvetica, Arial, sans-serif" font-size="13px" fill="#6b6459" opacity="1">70</text><text text-anchor="middle" transform="translate(434.40000000000003,17)" font-family="ui-sans-serif, system-ui, -apple-system, 'Segoe UI', Inter, Helvetica, Arial, sans-serif" font-size="13px" fill="#6b6459" opacity="1">80</text><text text-anchor="middle" transform="translate(488.7,17)" font-family="ui-sans-serif, system-ui, -apple-system, 'Segoe UI', Inter, Helvetica, Arial, sans-serif" font-size="13px" fill="#6b6459" opacity="1">90</text><text text-anchor="end" transform="translate(543,17)" font-family="ui-sans-serif, system-ui, -apple-system, 'Segoe UI', Inter, Helvetica, Arial, sans-serif" font-size="13px" fill="#6b6459" opacity="1">100</text></g><g class="mark-rule role-axis-domain" pointer-events="none"><line transform="translate(0,0)" x2="543" y2="0" stroke="#d9d2c5" stroke-width="1" opacity="1"/></g><g class="mark-text role-axis-title" pointer-events="none"><text text-anchor="middle" transform="translate(271.5,40)" font-family="ui-sans-serif, system-ui, -apple-system, 'Segoe UI', Inter, Helvetica, Arial, sans-serif" font-size="13px" font-weight="500" fill="#6b6459" opacity="1">score at 32K context</text></g></g><path class="foreground" aria-hidden="true" d="" pointer-events="none" display="none"/></g></g><g class="mark-group role-axis" role="graphics-symbol" aria-roledescription="axis" aria-label="Y-axis for a discrete scale with 5 values: GPT-4o (base 99.3), Gemini 1.5 Pro (base 92.6), Llama 3.3 70B (base 97.3), Claude 3.5 Sonnet (base 87.6), Command R+ (base 90.9)"><g transform="translate(0.5,0.5)"><path class="background" aria-hidden="true" d="M0,0h0v0h0Z" pointer-events="none"/><g><g class="mark-rule role-axis-tick" pointer-events="none"><line transform="translate(0,18)" x2="-5" y2="0" stroke="#d9d2c5" stroke-width="1" opacity="1"/><line transform="translate(0,56)" x2="-5" y2="0" stroke="#d9d2c5" stroke-width="1" opacity="1"/><line transform="translate(0,95)" x2="-5" y2="0" stroke="#d9d2c5" stroke-width="1" opacity="1"/><line transform="translate(0,133)" x2="-5" y2="0" stroke="#d9d2c5" stroke-width="1" opacity="1"/><line transform="translate(0,170)" x2="-5" y2="0" stroke="#d9d2c5" stroke-width="1" opacity="1"/></g><g class="mark-text role-axis-label" pointer-events="none"><text text-anchor="end" transform="translate(-7,22.499999999999993)" font-family="ui-sans-serif, system-ui, -apple-system, 'Segoe UI', Inter, Helvetica, Arial, sans-serif" font-size="13px" fill="#14110d" opacity="1">GPT-4o (base 99.3)</text><text text-anchor="end" transform="translate(-7,60.49999999999999)" font-family="ui-sans-serif, system-ui, -apple-system, 'Segoe UI', Inter, Helvetica, Arial, sans-serif" font-size="13px" fill="#14110d" opacity="1">Gemini 1.5 Pro (base 92.6)</text><text text-anchor="end" transform="translate(-7,98.5)" font-family="ui-sans-serif, system-ui, -apple-system, 'Segoe UI', Inter, Helvetica, Arial, sans-serif" font-size="13px" fill="#14110d" opacity="1">Llama 3.3 70B (base 97.3)</text><text text-anchor="end" transform="translate(-7,136.5)" font-family="ui-sans-serif, system-ui, -apple-system, 'Segoe UI', Inter, Helvetica, Arial, sans-serif" font-size="13px" fill="#14110d" opacity="1">Claude 3.5 Sonnet (base 87.6)</text><text text-anchor="end" transform="translate(-7,174.49999999999997)" font-family="ui-sans-serif, system-ui, -apple-system, 'Segoe UI', Inter, Helvetica, Arial, sans-serif" font-size="13px" fill="#14110d" opacity="1">Command R+ (base 90.9)</text></g><g class="mark-rule role-axis-domain" pointer-events="none"><line transform="translate(0,0)" x2="0" y2="190" stroke="#d9d2c5" stroke-width="1" opacity="1"/></g></g><path class="foreground" aria-hidden="true" d="" pointer-events="none" display="none"/></g></g><g class="mark-group role-scope" role="graphics-object" aria-roledescription="group mark container"><g transform="translate(0,6.999999999999993)"><path class="background" aria-hidden="true" d="M0,0L375.47100000000006,0C377.1267450734821,0,378.47100000000006,1.344254926518,378.47100000000006,3L378.47100000000006,21C378.47100000000006,22.655745073482,377.1267450734821,24,375.47100000000006,24L0,24C0,24,0,24,0,24L0,0C0,0,0,0,0,0Z"/><g clip-path="url(#clip1)"><g class="mark-group role-scope" role="graphics-object" aria-roledescription="group mark container"><g transform="translate(0,0)"><path class="background" aria-hidden="true" d="M0,0h0v24h0Z"/><g><g class="mark-rect role-mark layer_0_marks" role="graphics-object" aria-roledescription="rect mark container"><path aria-label="score at 32K context: 69.7; model: GPT-4o (base 99.3)" role="graphics-symbol" aria-roledescription="bar" d="M0,0h378.47100000000006v24h-378.47100000000006Z" fill="#2a78d6"/></g></g><path class="foreground" aria-hidden="true" d="" display="none"/></g></g></g><path class="foreground" aria-hidden="true" d="" display="none"/></g><g transform="translate(0,44.99999999999999)"><path class="background" aria-hidden="true" d="M0,0L258.726,0C260.381745073482,0,261.726,1.344254926518,261.726,3L261.726,21C261.726,22.655745073482,260.381745073482,24,258.726,24L0,24C0,24,0,24,0,24L0,0C0,0,0,0,0,0Z"/><g clip-path="url(#clip2)"><g class="mark-group role-scope" role="graphics-object" aria-roledescription="group mark container"><g transform="translate(0,0)"><path class="background" aria-hidden="true" d="M0,0h0v24h0Z"/><g><g class="mark-rect role-mark layer_0_marks" role="graphics-object" aria-roledescription="rect mark container"><path aria-label="score at 32K context: 48.2; model: Gemini 1.5 Pro (base 92.6)" role="graphics-symbol" aria-roledescription="bar" d="M0,0h261.726v24h-261.726Z" fill="#2a78d6"/></g></g><path class="foreground" aria-hidden="true" d="" display="none"/></g></g></g><path class="foreground" aria-hidden="true" d="" display="none"/></g><g transform="translate(0,83)"><path class="background" aria-hidden="true" d="M0,0L228.86100000000002,0C230.516745073482,0,231.86100000000002,1.344254926518,231.86100000000002,3L231.86100000000002,21C231.86100000000002,22.655745073482,230.516745073482,24,228.86100000000002,24L0,24C0,24,0,24,0,24L0,0C0,0,0,0,0,0Z"/><g clip-path="url(#clip3)"><g class="mark-group role-scope" role="graphics-object" aria-roledescription="group mark container"><g transform="translate(0,0)"><path class="background" aria-hidden="true" d="M0,0h0v24h0Z"/><g><g class="mark-rect role-mark layer_0_marks" role="graphics-object" aria-roledescription="rect mark container"><path aria-label="score at 32K context: 42.7; model: Llama 3.3 70B (base 97.3)" role="graphics-symbol" aria-roledescription="bar" d="M0,0h231.86100000000002v24h-231.86100000000002Z" fill="#2a78d6"/></g></g><path class="foreground" aria-hidden="true" d="" display="none"/></g></g></g><path class="foreground" aria-hidden="true" d="" display="none"/></g><g transform="translate(0,121)"><path class="background" aria-hidden="true" d="M0,0L158.814,0C160.469745073482,0,161.814,1.344254926518,161.814,3L161.814,21C161.814,22.655745073482,160.469745073482,24,158.814,24L0,24C0,24,0,24,0,24L0,0C0,0,0,0,0,0Z"/><g clip-path="url(#clip4)"><g class="mark-group role-scope" role="graphics-object" aria-roledescription="group mark container"><g transform="translate(0,0)"><path class="background" aria-hidden="true" d="M0,0h0v24h0Z"/><g><g class="mark-rect role-mark layer_0_marks" role="graphics-object" aria-roledescription="rect mark container"><path aria-label="score at 32K context: 29.8; model: Claude 3.5 Sonnet (base 87.6)" role="graphics-symbol" aria-roledescription="bar" d="M0,0h161.814v24h-161.814Z" fill="#2a78d6"/></g></g><path class="foreground" aria-hidden="true" d="" display="none"/></g></g></g><path class="foreground" aria-hidden="true" d="" display="none"/></g><g transform="translate(0,158.99999999999997)"><path class="background" aria-hidden="true" d="M0,0L37.182,0C38.837745073482004,0,40.182,1.344254926518,40.182,3L40.182,21C40.182,22.655745073482,38.837745073482004,24,37.182,24L0,24C0,24,0,24,0,24L0,0C0,0,0,0,0,0Z"/><g clip-path="url(#clip5)"><g class="mark-group role-scope" role="graphics-object" aria-roledescription="group mark container"><g transform="translate(0,0)"><path class="background" aria-hidden="true" d="M0,0h0v24h0Z"/><g><g class="mark-rect role-mark layer_0_marks" role="graphics-object" aria-roledescription="rect mark container"><path aria-label="score at 32K context: 7.4; model: Command R+ (base 90.9)" role="graphics-symbol" aria-roledescription="bar" d="M0,0h40.182v24h-40.182Z" fill="#2a78d6"/></g></g><path class="foreground" aria-hidden="true" d="" display="none"/></g></g></g><path class="foreground" aria-hidden="true" d="" display="none"/></g></g><g class="mark-text role-mark layer_1_marks" role="graphics-object" aria-roledescription="text mark container"><text aria-label="score at 32K context: 69.7; model: GPT-4o (base 99.3); v: 69.7" role="graphics-symbol" aria-roledescription="text mark" text-anchor="start" transform="translate(386.47100000000006,22.999999999999993)" font-family="ui-sans-serif, system-ui, -apple-system, 'Segoe UI', Inter, Helvetica, Arial, sans-serif" font-size="13px" font-weight="600" fill="#14110d">69.7</text><text aria-label="score at 32K context: 48.2; model: Gemini 1.5 Pro (base 92.6); v: 48.2" role="graphics-symbol" aria-roledescription="text mark" text-anchor="start" transform="translate(269.726,60.99999999999999)" font-family="ui-sans-serif, system-ui, -apple-system, 'Segoe UI', Inter, Helvetica, Arial, sans-serif" font-size="13px" font-weight="600" fill="#14110d">48.2</text><text aria-label="score at 32K context: 42.7; model: Llama 3.3 70B (base 97.3); v: 42.7" role="graphics-symbol" aria-roledescription="text mark" text-anchor="start" transform="translate(239.86100000000002,99)" font-family="ui-sans-serif, system-ui, -apple-system, 'Segoe UI', Inter, Helvetica, Arial, sans-serif" font-size="13px" font-weight="600" fill="#14110d">42.7</text><text aria-label="score at 32K context: 29.8; model: Claude 3.5 Sonnet (base 87.6); v: 29.8" role="graphics-symbol" aria-roledescription="text mark" text-anchor="start" transform="translate(169.814,137)" font-family="ui-sans-serif, system-ui, -apple-system, 'Segoe UI', Inter, Helvetica, Arial, sans-serif" font-size="13px" font-weight="600" fill="#14110d">29.8</text><text aria-label="score at 32K context: 7.4; model: Command R+ (base 90.9); v: 7.4" role="graphics-symbol" aria-roledescription="text mark" text-anchor="start" transform="translate(48.182,174.99999999999997)" font-family="ui-sans-serif, system-ui, -apple-system, 'Segoe UI', Inter, Helvetica, Arial, sans-serif" font-size="13px" font-weight="600" fill="#14110d">7.4</text></g><g class="mark-group role-title"><g transform="translate(-308,-45.5)"><path class="background" aria-hidden="true" d="M0,0h0v0h0Z" pointer-events="none"/><g><g class="mark-text role-title-text" role="graphics-symbol" aria-roledescription="title" aria-label="Title text 'NoLiMa score at 32K context'" pointer-events="none"><text text-anchor="start" transform="translate(0,13)" font-family="ui-sans-serif, system-ui, -apple-system, 'Segoe UI', Inter, Helvetica, Arial, sans-serif" font-size="16px" font-weight="600" fill="#14110d" opacity="1">NoLiMa score at 32K context</text></g><g class="mark-text role-title-subtitle" role="graphics-symbol" aria-roledescription="subtitle" aria-label="Subtitle text 'NoLiMa Table 3 (arXiv:2502.05167). Same metric as each model's base score, which runs 87.6-99.3 across these five.'" pointer-events="none"><text text-anchor="start" transform="translate(0,29)" font-family="ui-sans-serif, system-ui, -apple-system, 'Segoe UI', Inter, Helvetica, Arial, sans-serif" font-size="12.5px" fill="#6b6459" opacity="1">NoLiMa Table 3 (arXiv:2502.05167). Same metric as each model's base score, which runs 87.6-99.3 across these five.</text></g></g><path class="foreground" aria-hidden="true" d="" pointer-events="none" display="none"/></g></g></g><path class="foreground" aria-hidden="true" d="" display="none"/></g></g></g><defs><clipPath id="clip1"><path d="M0,0L375.47100000000006,0C377.1267450734821,0,378.47100000000006,1.344254926518,378.47100000000006,3L378.47100000000006,21C378.47100000000006,22.655745073482,377.1267450734821,24,375.47100000000006,24L0,24C0,24,0,24,0,24L0,0C0,0,0,0,0,0Z"/></clipPath><clipPath id="clip2"><path d="M0,0L258.726,0C260.381745073482,0,261.726,1.344254926518,261.726,3L261.726,21C261.726,22.655745073482,260.381745073482,24,258.726,24L0,24C0,24,0,24,0,24L0,0C0,0,0,0,0,0Z"/></clipPath><clipPath id="clip3"><path d="M0,0L228.86100000000002,0C230.516745073482,0,231.86100000000002,1.344254926518,231.86100000000002,3L231.86100000000002,21C231.86100000000002,22.655745073482,230.516745073482,24,228.86100000000002,24L0,24C0,24,0,24,0,24L0,0C0,0,0,0,0,0Z"/></clipPath><clipPath id="clip4"><path d="M0,0L158.814,0C160.469745073482,0,161.814,1.344254926518,161.814,3L161.814,21C161.814,22.655745073482,160.469745073482,24,158.814,24L0,24C0,24,0,24,0,24L0,0C0,0,0,0,0,0Z"/></clipPath><clipPath id="clip5"><path d="M0,0L37.182,0C38.837745073482004,0,40.182,1.344254926518,40.182,3L40.182,21C40.182,22.655745073482,38.837745073482004,24,37.182,24L0,24C0,24,0,24,0,24L0,0C0,0,0,0,0,0Z"/></clipPath></defs></svg>