<svg xmlns="http://www.w3.org/2000/svg" viewBox="0 0 1080 380" width="1080" height="380" color="#14110d" font-family="ui-sans-serif, system-ui, -apple-system, 'Segoe UI', Inter, Helvetica, Arial, sans-serif" role="img" aria-label="Two rows of four layers: system, context, history, new turn. On a cache hit the prefix is byte-identical and the first three layers are read at 0.1x, only the new turn is written. On a miss, one byte edited in layer 2 means context, history and the new turn are all recomputed at full price."><style>text{user-select:none}</style><g transform="translate(0,0)"><defs><marker id="chm-head" markerWidth="8" markerHeight="8" refX="7" refY="4" orient="auto-start-reverse" markerUnits="userSpaceOnUse"><path d="M0,0 L8,4 L0,8 z" fill="currentColor"></path></marker><marker id="chm-head-accent" markerWidth="8" markerHeight="8" refX="7" refY="4" orient="auto-start-reverse" markerUnits="userSpaceOnUse"><path d="M0,0 L8,4 L0,8 z" fill="#1baf7a"></path></marker><marker id="chm-head-request" markerWidth="8" markerHeight="8" refX="7" refY="4" orient="auto-start-reverse" markerUnits="userSpaceOnUse"><path d="M0,0 L8,4 L0,8 z" fill="#2a78d6"></path></marker><marker id="chm-head-response" markerWidth="8" markerHeight="8" refX="7" refY="4" orient="auto-start-reverse" markerUnits="userSpaceOnUse"><path d="M0,0 L8,4 L0,8 z" fill="#1baf7a"></path></marker><marker id="chm-head-change" markerWidth="8" markerHeight="8" refX="7" refY="4" orient="auto-start-reverse" markerUnits="userSpaceOnUse"><path d="M0,0 L8,4 L0,8 z" fill="#eb6834"></path></marker></defs><g data-uipack="group"><rect x="24" y="24" width="1032" height="152" rx="10" fill="none" stroke="currentColor" stroke-opacity="0.4" stroke-width="1.25" stroke-dasharray="4 4"></rect><text x="40" y="46" font-size="13" font-family="ui-monospace, SFMono-Regular, Menlo, Consolas, monospace" letter-spacing=".08em" fill="currentColor" fill-opacity="0.75">CACHE HIT · PREFIX BYTE-IDENTICAL</text><g><g data-uipack="node"><rect x="64" y="88" width="200" height="56" rx="6" fill="#f6f2ea" stroke="currentColor" stroke-opacity="0.7" stroke-width="1.25"></rect><g transform="translate(78, 108)" fill="none" stroke="currentColor" stroke-width="1.5" stroke-linecap="round" stroke-linejoin="round"><path d="M4 1.5h5.5L13 5v9.5H4z"></path><path d="M9.5 1.5V5H13M6 8h4M6 11h4"></path></g><text x="104" y="113" text-anchor="start" font-size="19" font-weight="600" fill="currentColor">1 · System</text><text x="104" y="131" text-anchor="start" font-size="13" font-family="ui-monospace, SFMono-Regular, Menlo, Consolas, monospace" fill="currentColor" fill-opacity="0.75">0.1x</text></g></g><g><path data-uipack="connector" data-kind="request" d="M266,116 L308,116" fill="none" stroke="#2a78d6" stroke-opacity="1" stroke-width="1.25" marker-end="url(#chm-head-request)"></path><g data-uipack="packet" data-kind="request"><rect x="-4" y="-4" width="8" height="8" rx="1.5" fill="#2a78d6" stroke="#fffdf9" stroke-width="1.5"></rect><animateMotion dur="1.4s" begin="-0.4s" repeatCount="indefinite" path="M266,116 L300,116" calcMode="linear"></animateMotion></g><g data-uipack="node"><rect x="312" y="88" width="200" height="56" rx="6" fill="#f6f2ea" stroke="currentColor" stroke-opacity="0.7" stroke-width="1.25"></rect><g transform="translate(326, 108)" fill="none" stroke="currentColor" stroke-width="1.5" stroke-linecap="round" stroke-linejoin="round"><ellipse cx="8" cy="3.5" rx="6" ry="2.5"></ellipse><path d="M2 3.5v9c0 1.4 2.7 2.5 6 2.5s6-1.1 6-2.5v-9"></path><path d="M2 8c0 1.4 2.7 2.5 6 2.5s6-1.1 6-2.5"></path></g><text x="352" y="113" text-anchor="start" font-size="19" font-weight="600" fill="currentColor">2 · Context</text><text x="352" y="131" text-anchor="start" font-size="13" font-family="ui-monospace, SFMono-Regular, Menlo, Consolas, monospace" fill="currentColor" fill-opacity="0.75">0.1x</text></g></g><g><path data-uipack="connector" data-kind="request" d="M514,116 L556,116" fill="none" stroke="#2a78d6" stroke-opacity="1" stroke-width="1.25" marker-end="url(#chm-head-request)"></path><g data-uipack="packet" data-kind="request"><rect x="-4" y="-4" width="8" height="8" rx="1.5" fill="#2a78d6" stroke="#fffdf9" stroke-width="1.5"></rect><animateMotion dur="1.4s" begin="-0.8s" repeatCount="indefinite" path="M514,116 L548,116" calcMode="linear"></animateMotion></g><g data-uipack="node"><rect x="560" y="88" width="200" height="56" rx="6" fill="#f6f2ea" stroke="currentColor" stroke-opacity="0.7" stroke-width="1.25"></rect><g transform="translate(574, 108)" fill="none" stroke="currentColor" stroke-width="1.5" stroke-linecap="round" stroke-linejoin="round"><circle cx="8" cy="8" r="6"></circle><path d="M8 4.5V8l2.5 1.5"></path></g><text x="600" y="113" text-anchor="start" font-size="19" font-weight="600" fill="currentColor">3 · History</text><text x="600" y="131" text-anchor="start" font-size="13" font-family="ui-monospace, SFMono-Regular, Menlo, Consolas, monospace" fill="currentColor" fill-opacity="0.75">0.1x</text></g></g><g><path data-uipack="connector" d="M762,116 L804,116" fill="none" stroke="currentColor" stroke-opacity="0.6" stroke-width="1.25" marker-end="url(#chm-head)"></path><g data-uipack="packet"><circle cx="0" cy="0" r="4" fill="currentColor" stroke="#fffdf9" stroke-width="1.5"></circle><animateMotion dur="1.4s" begin="-1.2000000000000002s" repeatCount="indefinite" path="M762,116 L796,116" calcMode="linear"></animateMotion></g><g data-uipack="node"><rect x="808" y="88" width="200" height="56" rx="6" fill="#f6f2ea" stroke="currentColor" stroke-opacity="0.7" stroke-width="1.25"></rect><g transform="translate(822, 108)" fill="none" stroke="currentColor" stroke-width="1.5" stroke-linecap="round" stroke-linejoin="round"><circle cx="8" cy="5.5" r="3"></circle><path d="M2.5 14.5c0-3 2.5-5 5.5-5s5.5 2 5.5 5"></path></g><text x="848" y="113" text-anchor="start" font-size="19" font-weight="600" fill="currentColor">4 · New turn</text><text x="848" y="131" text-anchor="start" font-size="13" font-family="ui-monospace, SFMono-Regular, Menlo, Consolas, monospace" fill="currentColor" fill-opacity="0.75">write</text></g></g></g><g data-uipack="group"><rect x="24" y="200" width="1032" height="152" rx="10" fill="none" stroke="currentColor" stroke-opacity="0.4" stroke-width="1.25" stroke-dasharray="4 4"></rect><text x="40" y="222" font-size="13" font-family="ui-monospace, SFMono-Regular, Menlo, Consolas, monospace" letter-spacing=".08em" fill="currentColor" fill-opacity="0.75">CACHE MISS · ONE BYTE EDITED IN LAYER 2</text><g><g data-uipack="node"><rect x="64" y="264" width="200" height="56" rx="6" fill="#f6f2ea" stroke="currentColor" stroke-opacity="0.7" stroke-width="1.25"></rect><g transform="translate(78, 284)" fill="none" stroke="currentColor" stroke-width="1.5" stroke-linecap="round" stroke-linejoin="round"><path d="M4 1.5h5.5L13 5v9.5H4z"></path><path d="M9.5 1.5V5H13M6 8h4M6 11h4"></path></g><text x="104" y="289" text-anchor="start" font-size="19" font-weight="600" fill="currentColor">1 · System</text><text x="104" y="307" text-anchor="start" font-size="13" font-family="ui-monospace, SFMono-Regular, Menlo, Consolas, monospace" fill="currentColor" fill-opacity="0.75">0.1x</text></g></g><g><path data-uipack="connector" data-kind="change" d="M266,292 L308,292" fill="none" stroke="#eb6834" stroke-opacity="1" stroke-width="1.25" marker-end="url(#chm-head-change)"></path><g data-uipack="packet" data-kind="change"><path d="M0,-4.8 L4.8,0 L0,4.8 L-4.8,0 Z" fill="#eb6834" stroke="#fffdf9" stroke-width="1.5"></path><animateMotion dur="1.4s" begin="-0.4s" repeatCount="indefinite" path="M266,292 L300,292" calcMode="linear"></animateMotion></g><g data-uipack="node"><rect x="312" y="264" width="200" height="56" rx="6" fill="#f6f2ea" stroke="currentColor" stroke-opacity="0.7" stroke-width="1.25" stroke-dasharray="4 4"></rect><g transform="translate(326, 284)" fill="none" stroke="currentColor" stroke-width="1.5" stroke-linecap="round" stroke-linejoin="round"><ellipse cx="8" cy="3.5" rx="6" ry="2.5"></ellipse><path d="M2 3.5v9c0 1.4 2.7 2.5 6 2.5s6-1.1 6-2.5v-9"></path><path d="M2 8c0 1.4 2.7 2.5 6 2.5s6-1.1 6-2.5"></path></g><text x="352" y="289" text-anchor="start" font-size="19" font-weight="600" fill="currentColor">2 · Context</text><text x="352" y="307" text-anchor="start" font-size="13" font-family="ui-monospace, SFMono-Regular, Menlo, Consolas, monospace" fill="currentColor" fill-opacity="0.75">full price</text></g></g><g><path data-uipack="connector" data-kind="change" d="M514,292 L556,292" fill="none" stroke="#eb6834" stroke-opacity="1" stroke-width="1.25" marker-end="url(#chm-head-change)"></path><g data-uipack="packet" data-kind="change"><path d="M0,-4.8 L4.8,0 L0,4.8 L-4.8,0 Z" fill="#eb6834" stroke="#fffdf9" stroke-width="1.5"></path><animateMotion dur="1.4s" begin="-0.8s" repeatCount="indefinite" path="M514,292 L548,292" calcMode="linear"></animateMotion></g><g data-uipack="node"><rect x="560" y="264" width="200" height="56" rx="6" fill="#f6f2ea" stroke="currentColor" stroke-opacity="0.7" stroke-width="1.25" stroke-dasharray="4 4"></rect><g transform="translate(574, 284)" fill="none" stroke="currentColor" stroke-width="1.5" stroke-linecap="round" stroke-linejoin="round"><circle cx="8" cy="8" r="6"></circle><path d="M8 4.5V8l2.5 1.5"></path></g><text x="600" y="289" text-anchor="start" font-size="19" font-weight="600" fill="currentColor">3 · History</text><text x="600" y="307" text-anchor="start" font-size="13" font-family="ui-monospace, SFMono-Regular, Menlo, Consolas, monospace" fill="currentColor" fill-opacity="0.75">full price</text></g></g><g><path data-uipack="connector" data-kind="change" d="M762,292 L804,292" fill="none" stroke="#eb6834" stroke-opacity="1" stroke-width="1.25" marker-end="url(#chm-head-change)"></path><g data-uipack="packet" data-kind="change"><path d="M0,-4.8 L4.8,0 L0,4.8 L-4.8,0 Z" fill="#eb6834" stroke="#fffdf9" stroke-width="1.5"></path><animateMotion dur="1.4s" begin="-1.2000000000000002s" repeatCount="indefinite" path="M762,292 L796,292" calcMode="linear"></animateMotion></g><g data-uipack="node"><rect x="808" y="264" width="200" height="56" rx="6" fill="#f6f2ea" stroke="currentColor" stroke-opacity="0.7" stroke-width="1.25" stroke-dasharray="4 4"></rect><g transform="translate(822, 284)" fill="none" stroke="currentColor" stroke-width="1.5" stroke-linecap="round" stroke-linejoin="round"><circle cx="8" cy="5.5" r="3"></circle><path d="M2.5 14.5c0-3 2.5-5 5.5-5s5.5 2 5.5 5"></path></g><text x="848" y="289" text-anchor="start" font-size="19" font-weight="600" fill="currentColor">4 · New turn</text><text x="848" y="307" text-anchor="start" font-size="13" font-family="ui-monospace, SFMono-Regular, Menlo, Consolas, monospace" fill="currentColor" fill-opacity="0.75">full price</text></g></g></g></g></svg>
