<svg xmlns="http://www.w3.org/2000/svg" xmlns:xlink="http://www.w3.org/1999/xlink" version="1.1" class="marks" width="860" height="173" viewBox="0 0 860 173"><g fill="none" stroke-miterlimit="4" transform="translate(177,50)"><g class="mark-group role-frame root" role="graphics-object" aria-roledescription="group mark container"><g transform="translate(0,0)"><path class="background" aria-hidden="true" d="M0,0h637v76h-637Z"/><g><g class="mark-group role-axis" aria-hidden="true"><g transform="translate(0.5,76.5)"><path class="background" aria-hidden="true" d="M0,0h0v0h0Z" pointer-events="none"/><g><g class="mark-rule role-axis-grid" pointer-events="none"><line transform="translate(0,0)" x2="0" y2="-76" stroke="#d9d2c5" stroke-opacity="0.55" stroke-width="1" opacity="1"/><line transform="translate(32,0)" x2="0" y2="-76" stroke="#d9d2c5" stroke-opacity="0.55" stroke-width="1" opacity="1"/><line transform="translate(64,0)" x2="0" y2="-76" stroke="#d9d2c5" stroke-opacity="0.55" stroke-width="1" opacity="1"/><line transform="translate(96,0)" x2="0" y2="-76" stroke="#d9d2c5" stroke-opacity="0.55" stroke-width="1" opacity="1"/><line transform="translate(127,0)" x2="0" y2="-76" stroke="#d9d2c5" stroke-opacity="0.55" stroke-width="1" opacity="1"/><line transform="translate(159,0)" x2="0" y2="-76" stroke="#d9d2c5" stroke-opacity="0.55" stroke-width="1" opacity="1"/><line transform="translate(191,0)" x2="0" y2="-76" stroke="#d9d2c5" stroke-opacity="0.55" stroke-width="1" opacity="1"/><line transform="translate(223,0)" x2="0" y2="-76" stroke="#d9d2c5" stroke-opacity="0.55" stroke-width="1" opacity="1"/><line transform="translate(255,0)" x2="0" y2="-76" stroke="#d9d2c5" stroke-opacity="0.55" stroke-width="1" opacity="1"/><line transform="translate(287,0)" x2="0" y2="-76" stroke="#d9d2c5" stroke-opacity="0.55" stroke-width="1" opacity="1"/><line transform="translate(319,0)" x2="0" y2="-76" stroke="#d9d2c5" stroke-opacity="0.55" stroke-width="1" opacity="1"/><line transform="translate(350,0)" x2="0" y2="-76" stroke="#d9d2c5" stroke-opacity="0.55" stroke-width="1" opacity="1"/><line transform="translate(382,0)" x2="0" y2="-76" stroke="#d9d2c5" stroke-opacity="0.55" stroke-width="1" opacity="1"/><line transform="translate(414,0)" x2="0" y2="-76" stroke="#d9d2c5" stroke-opacity="0.55" stroke-width="1" opacity="1"/><line transform="translate(446,0)" x2="0" y2="-76" stroke="#d9d2c5" stroke-opacity="0.55" stroke-width="1" opacity="1"/><line transform="translate(478,0)" x2="0" y2="-76" stroke="#d9d2c5" stroke-opacity="0.55" stroke-width="1" opacity="1"/><line transform="translate(510,0)" x2="0" y2="-76" stroke="#d9d2c5" stroke-opacity="0.55" stroke-width="1" opacity="1"/><line transform="translate(541,0)" x2="0" y2="-76" stroke="#d9d2c5" stroke-opacity="0.55" stroke-width="1" opacity="1"/><line transform="translate(573,0)" x2="0" y2="-76" stroke="#d9d2c5" stroke-opacity="0.55" stroke-width="1" opacity="1"/><line transform="translate(605,0)" x2="0" y2="-76" stroke="#d9d2c5" stroke-opacity="0.55" stroke-width="1" opacity="1"/><line transform="translate(637,0)" x2="0" y2="-76" stroke="#d9d2c5" stroke-opacity="0.55" stroke-width="1" opacity="1"/></g></g><path class="foreground" aria-hidden="true" d="" pointer-events="none" display="none"/></g></g><g class="mark-group role-axis" role="graphics-symbol" aria-roledescription="axis" aria-label="X-axis titled 'tokens / sec' for a linear scale with values from 0 to 2,000"><g transform="translate(0.5,76.5)"><path class="background" aria-hidden="true" d="M0,0h0v0h0Z" pointer-events="none"/><g><g class="mark-rule role-axis-tick" pointer-events="none"><line transform="translate(0,0)" x2="0" y2="5" stroke="#d9d2c5" stroke-width="1" opacity="1"/><line transform="translate(32,0)" x2="0" y2="5" stroke="#d9d2c5" stroke-width="1" opacity="1"/><line transform="translate(64,0)" x2="0" y2="5" stroke="#d9d2c5" stroke-width="1" opacity="1"/><line transform="translate(96,0)" x2="0" y2="5" stroke="#d9d2c5" stroke-width="1" opacity="1"/><line transform="translate(127,0)" x2="0" y2="5" stroke="#d9d2c5" stroke-width="1" opacity="1"/><line transform="translate(159,0)" x2="0" y2="5" stroke="#d9d2c5" stroke-width="1" opacity="1"/><line transform="translate(191,0)" x2="0" y2="5" stroke="#d9d2c5" stroke-width="1" opacity="1"/><line transform="translate(223,0)" x2="0" y2="5" stroke="#d9d2c5" stroke-width="1" opacity="1"/><line transform="translate(255,0)" x2="0" y2="5" stroke="#d9d2c5" stroke-width="1" opacity="1"/><line transform="translate(287,0)" x2="0" y2="5" stroke="#d9d2c5" stroke-width="1" opacity="1"/><line transform="translate(319,0)" x2="0" y2="5" stroke="#d9d2c5" stroke-width="1" opacity="1"/><line transform="translate(350,0)" x2="0" y2="5" stroke="#d9d2c5" stroke-width="1" opacity="1"/><line transform="translate(382,0)" x2="0" y2="5" stroke="#d9d2c5" stroke-width="1" opacity="1"/><line transform="translate(414,0)" x2="0" y2="5" stroke="#d9d2c5" stroke-width="1" opacity="1"/><line transform="translate(446,0)" x2="0" y2="5" stroke="#d9d2c5" stroke-width="1" opacity="1"/><line transform="translate(478,0)" x2="0" y2="5" stroke="#d9d2c5" stroke-width="1" opacity="1"/><line transform="translate(510,0)" x2="0" y2="5" stroke="#d9d2c5" stroke-width="1" opacity="1"/><line transform="translate(541,0)" x2="0" y2="5" stroke="#d9d2c5" stroke-width="1" opacity="1"/><line transform="translate(573,0)" x2="0" y2="5" stroke="#d9d2c5" stroke-width="1" opacity="1"/><line transform="translate(605,0)" x2="0" y2="5" stroke="#d9d2c5" stroke-width="1" opacity="1"/><line transform="translate(637,0)" x2="0" y2="5" stroke="#d9d2c5" stroke-width="1" opacity="1"/></g><g class="mark-text role-axis-label" pointer-events="none"><text text-anchor="start" transform="translate(0,17)" font-family="ui-sans-serif, system-ui, -apple-system, 'Segoe UI', Inter, Helvetica, Arial, sans-serif" font-size="13px" fill="#6b6459" opacity="1">0</text><text text-anchor="middle" transform="translate(31.85,17)" font-family="ui-sans-serif, system-ui, -apple-system, 'Segoe UI', Inter, Helvetica, Arial, sans-serif" font-size="13px" fill="#6b6459" opacity="0">100</text><text text-anchor="middle" transform="translate(63.7,17)" font-family="ui-sans-serif, system-ui, -apple-system, 'Segoe UI', Inter, Helvetica, Arial, sans-serif" font-size="13px" fill="#6b6459" opacity="0">200</text><text text-anchor="middle" transform="translate(95.55,17)" font-family="ui-sans-serif, system-ui, -apple-system, 'Segoe UI', Inter, Helvetica, Arial, sans-serif" font-size="13px" fill="#6b6459" opacity="0">300</text><text text-anchor="middle" transform="translate(127.4,17)" font-family="ui-sans-serif, system-ui, -apple-system, 'Segoe UI', Inter, Helvetica, Arial, sans-serif" font-size="13px" fill="#6b6459" opacity="1">400</text><text text-anchor="middle" transform="translate(159.25,17)" font-family="ui-sans-serif, system-ui, -apple-system, 'Segoe UI', Inter, Helvetica, Arial, sans-serif" font-size="13px" fill="#6b6459" opacity="0">500</text><text text-anchor="middle" transform="translate(191.1,17)" font-family="ui-sans-serif, system-ui, -apple-system, 'Segoe UI', Inter, Helvetica, Arial, sans-serif" font-size="13px" fill="#6b6459" opacity="0">600</text><text text-anchor="middle" transform="translate(222.95,17)" font-family="ui-sans-serif, system-ui, -apple-system, 'Segoe UI', Inter, Helvetica, Arial, sans-serif" font-size="13px" fill="#6b6459" opacity="0">700</text><text text-anchor="middle" transform="translate(254.8,17)" font-family="ui-sans-serif, system-ui, -apple-system, 'Segoe UI', Inter, Helvetica, Arial, sans-serif" font-size="13px" fill="#6b6459" opacity="1">800</text><text text-anchor="middle" transform="translate(286.65000000000003,17)" font-family="ui-sans-serif, system-ui, -apple-system, 'Segoe UI', Inter, Helvetica, Arial, sans-serif" font-size="13px" fill="#6b6459" opacity="0">900</text><text text-anchor="middle" transform="translate(318.5,17)" font-family="ui-sans-serif, system-ui, -apple-system, 'Segoe UI', Inter, Helvetica, Arial, sans-serif" font-size="13px" fill="#6b6459" opacity="0">1,000</text><text text-anchor="middle" transform="translate(350.35,17)" font-family="ui-sans-serif, system-ui, -apple-system, 'Segoe UI', Inter, Helvetica, Arial, sans-serif" font-size="13px" fill="#6b6459" opacity="0">1,100</text><text text-anchor="middle" transform="translate(382.2,17)" font-family="ui-sans-serif, system-ui, -apple-system, 'Segoe UI', Inter, Helvetica, Arial, sans-serif" font-size="13px" fill="#6b6459" opacity="1">1,200</text><text text-anchor="middle" transform="translate(414.05,17)" font-family="ui-sans-serif, system-ui, -apple-system, 'Segoe UI', Inter, Helvetica, Arial, sans-serif" font-size="13px" fill="#6b6459" opacity="0">1,300</text><text text-anchor="middle" transform="translate(445.9,17)" font-family="ui-sans-serif, system-ui, -apple-system, 'Segoe UI', Inter, Helvetica, Arial, sans-serif" font-size="13px" fill="#6b6459" opacity="0">1,400</text><text text-anchor="middle" transform="translate(477.75,17)" font-family="ui-sans-serif, system-ui, -apple-system, 'Segoe UI', Inter, Helvetica, Arial, sans-serif" font-size="13px" fill="#6b6459" opacity="0">1,500</text><text text-anchor="middle" transform="translate(509.6,17)" font-family="ui-sans-serif, system-ui, -apple-system, 'Segoe UI', Inter, Helvetica, Arial, sans-serif" font-size="13px" fill="#6b6459" opacity="1">1,600</text><text text-anchor="middle" transform="translate(541.4499999999999,17)" font-family="ui-sans-serif, system-ui, -apple-system, 'Segoe UI', Inter, Helvetica, Arial, sans-serif" font-size="13px" fill="#6b6459" opacity="0">1,700</text><text text-anchor="middle" transform="translate(573.3000000000001,17)" font-family="ui-sans-serif, system-ui, -apple-system, 'Segoe UI', Inter, Helvetica, Arial, sans-serif" font-size="13px" fill="#6b6459" opacity="0">1,800</text><text text-anchor="middle" transform="translate(605.15,17)" font-family="ui-sans-serif, system-ui, -apple-system, 'Segoe UI', Inter, Helvetica, Arial, sans-serif" font-size="13px" fill="#6b6459" opacity="0">1,900</text><text text-anchor="end" transform="translate(637,17)" font-family="ui-sans-serif, system-ui, -apple-system, 'Segoe UI', Inter, Helvetica, Arial, sans-serif" font-size="13px" fill="#6b6459" opacity="1">2,000</text></g><g class="mark-rule role-axis-domain" pointer-events="none"><line transform="translate(0,0)" x2="637" y2="0" stroke="#d9d2c5" stroke-width="1" opacity="1"/></g><g class="mark-text role-axis-title" pointer-events="none"><text text-anchor="middle" transform="translate(318.5,40)" font-family="ui-sans-serif, system-ui, -apple-system, 'Segoe UI', Inter, Helvetica, Arial, sans-serif" font-size="13px" font-weight="500" fill="#6b6459" opacity="1">tokens / sec</text></g></g><path class="foreground" aria-hidden="true" d="" pointer-events="none" display="none"/></g></g><g class="mark-group role-axis" role="graphics-symbol" aria-roledescription="axis" aria-label="Y-axis for a discrete scale with 2 values: Prefill (pp2048), Decode (tg32)"><g transform="translate(0.5,0.5)"><path class="background" aria-hidden="true" d="M0,0h0v0h0Z" pointer-events="none"/><g><g class="mark-rule role-axis-tick" pointer-events="none"><line transform="translate(0,19)" x2="-5" y2="0" stroke="#d9d2c5" stroke-width="1" opacity="1"/><line transform="translate(0,57)" x2="-5" y2="0" stroke="#d9d2c5" stroke-width="1" opacity="1"/></g><g class="mark-text role-axis-label" pointer-events="none"><text text-anchor="end" transform="translate(-7,22.5)" font-family="ui-sans-serif, system-ui, -apple-system, 'Segoe UI', Inter, Helvetica, Arial, sans-serif" font-size="13px" fill="#14110d" opacity="1">Prefill (pp2048)</text><text text-anchor="end" transform="translate(-7,60.5)" font-family="ui-sans-serif, system-ui, -apple-system, 'Segoe UI', Inter, Helvetica, Arial, sans-serif" font-size="13px" fill="#14110d" opacity="1">Decode (tg32)</text></g><g class="mark-rule role-axis-domain" pointer-events="none"><line transform="translate(0,0)" x2="0" y2="76" stroke="#d9d2c5" stroke-width="1" opacity="1"/></g></g><path class="foreground" aria-hidden="true" d="" pointer-events="none" display="none"/></g></g><g class="mark-group role-scope" role="graphics-object" aria-roledescription="group mark container"><g transform="translate(0,7)"><path class="background" aria-hidden="true" d="M0,0L619.986,0C621.641745073482,0,622.986,1.344254926518,622.986,3L622.986,21C622.986,22.655745073482,621.641745073482,24,619.986,24L0,24C0,24,0,24,0,24L0,0C0,0,0,0,0,0Z"/><g clip-path="url(#clip49)"><g class="mark-group role-scope" role="graphics-object" aria-roledescription="group mark container"><g transform="translate(0,0)"><path class="background" aria-hidden="true" d="M0,0h0v24h0Z"/><g><g class="mark-rect role-mark layer_0_marks" role="graphics-object" aria-roledescription="rect mark container"><path aria-label="tokens / sec: 1956; phase: Prefill (pp2048)" role="graphics-symbol" aria-roledescription="bar" d="M0,0h622.986v24h-622.986Z" fill="#eb6834"/></g></g><path class="foreground" aria-hidden="true" d="" display="none"/></g></g></g><path class="foreground" aria-hidden="true" d="" display="none"/></g><g transform="translate(0,45)"><path class="background" aria-hidden="true" d="M0,0L16.291545,0C17.947290073481998,0,19.291545,1.344254926518,19.291545,3L19.291545,21C19.291545,22.655745073482,17.947290073481998,24,16.291545,24L0,24C0,24,0,24,0,24L0,0C0,0,0,0,0,0Z"/><g clip-path="url(#clip50)"><g class="mark-group role-scope" role="graphics-object" aria-roledescription="group mark container"><g transform="translate(0,0)"><path class="background" aria-hidden="true" d="M0,0h0v24h0Z"/><g><g class="mark-rect role-mark layer_0_marks" role="graphics-object" aria-roledescription="rect mark container"><path aria-label="tokens / sec: 60.57; phase: Decode (tg32)" role="graphics-symbol" aria-roledescription="bar" d="M0,0h19.291545v24h-19.291545Z" fill="#2a78d6"/></g></g><path class="foreground" aria-hidden="true" d="" display="none"/></g></g></g><path class="foreground" aria-hidden="true" d="" display="none"/></g></g><g class="mark-text role-mark layer_1_marks" role="graphics-object" aria-roledescription="text mark container"><text aria-label="tokens / sec: 1956; phase: Prefill (pp2048); v: 1,956" role="graphics-symbol" aria-roledescription="text mark" text-anchor="start" transform="translate(630.986,23)" font-family="ui-sans-serif, system-ui, -apple-system, 'Segoe UI', Inter, Helvetica, Arial, sans-serif" font-size="13px" font-weight="600" fill="#14110d">1,956</text><text aria-label="tokens / sec: 60.57; phase: Decode (tg32); v: 60.57" role="graphics-symbol" aria-roledescription="text mark" text-anchor="start" transform="translate(27.291545,61)" font-family="ui-sans-serif, system-ui, -apple-system, 'Segoe UI', Inter, Helvetica, Arial, sans-serif" font-size="13px" font-weight="600" fill="#14110d">60.57</text></g><g class="mark-group role-title"><g transform="translate(-173,-45.5)"><path class="background" aria-hidden="true" d="M0,0h0v0h0Z" pointer-events="none"/><g><g class="mark-text role-title-text" role="graphics-symbol" aria-roledescription="title" aria-label="Title text 'Same box, same weights: prefill vs decode'" pointer-events="none"><text text-anchor="start" transform="translate(0,13)" font-family="ui-sans-serif, system-ui, -apple-system, 'Segoe UI', Inter, Helvetica, Arial, sans-serif" font-size="16px" font-weight="600" fill="#14110d" opacity="1">Same box, same weights: prefill vs decode</text></g><g class="mark-text role-title-subtitle" role="graphics-symbol" aria-roledescription="subtitle" aria-label="Subtitle text 'DGX Spark, gpt-oss-120b MXFP4, llama.cpp DGX Spark thread. pp2048 against tg32.'" pointer-events="none"><text text-anchor="start" transform="translate(0,29)" font-family="ui-sans-serif, system-ui, -apple-system, 'Segoe UI', Inter, Helvetica, Arial, sans-serif" font-size="12.5px" fill="#6b6459" opacity="1">DGX Spark, gpt-oss-120b MXFP4, llama.cpp DGX Spark thread. pp2048 against tg32.</text></g></g><path class="foreground" aria-hidden="true" d="" pointer-events="none" display="none"/></g></g></g><path class="foreground" aria-hidden="true" d="" display="none"/></g></g></g><defs><clipPath id="clip49"><path d="M0,0L619.986,0C621.641745073482,0,622.986,1.344254926518,622.986,3L622.986,21C622.986,22.655745073482,621.641745073482,24,619.986,24L0,24C0,24,0,24,0,24L0,0C0,0,0,0,0,0Z"/></clipPath><clipPath id="clip50"><path d="M0,0L16.291545,0C17.947290073481998,0,19.291545,1.344254926518,19.291545,3L19.291545,21C19.291545,22.655745073482,17.947290073481998,24,16.291545,24L0,24C0,24,0,24,0,24L0,0C0,0,0,0,0,0Z"/></clipPath></defs></svg>